<?xml version="1.0" encoding="UTF-8"?>
<svg id="Layer_2" data-name="Layer 2" xmlns="http://www.w3.org/2000/svg" viewBox="0 0 1017.21 262.47">
  <defs>
    <style>
      .cls-1 {
        fill: #fff;
      }

      .cls-2 {
        fill: #100152;
      }

      .cls-3 {
        fill: #fbaf41;
      }
    </style>
  </defs>
  <g id="Layer_1-2" data-name="Layer 1">
    <g>
      <g>
        <path class="cls-2" d="m3.55,118.32c19.7-12.17,47.67-26.61,83.24-36.72,42.61-12.12,79.77-13.39,105.28-12.24-8.1,49.32-16.19,98.63-24.29,147.95-1.41,8.62-9.62,14.39-18.2,12.8-22.5-4.16-49.59-6.6-79.92-4.06-12.3,1.03-23.75,2.76-34.28,4.9-10.61-37.54-21.22-75.08-31.83-112.62Z"/>
        <path class="cls-3" d="m194.49,38.75c-.39-1.76-.73-3.31-1.66-4.65-.56-.73-1.1-.49-1.64-.51l-3.23.07c-12.49.34-24.95,1.35-37.36,2.99-6.12-12.54-16.23-23.06-28.6-29.43C75.63-16.85,28.13,22.98,37.09,72.05c-12.85,6.63-25.24,14.13-37.09,22.45l2.2,3.57c14.96-7.93,30.14-15.28,45.76-21.52,44.58-18.09,92.28-28.45,140.38-29.99l3.11-.07c.54-.05,1.05.17,1.57-.56.88-1.4,1.18-2.96,1.52-4.73l-.05-2.45Zm-152.28,30.7C36.53,26.95,77.81-7.4,118.01,14.71c9.77,5.34,17.7,13.64,22.79,23.38-34.2,5.51-67.6,15.99-98.59,31.36Z"/>
        <path class="cls-3" d="m35.17,241.26c41.4-5.49,84.26-1.39,124.28,12.02l-3.32,9.2c-37.96-14.76-79.51-20.83-120.55-17.36l-.41-3.85h0Z"/>
        <path class="cls-1" d="m105.29,110.69c-.46-.62-5.19-6.88-13.47-6.8-8.75.07-13.43,7.17-13.76,7.68-7.86,16.51-15.73,33.03-23.59,49.54l-10.59.97c-4.8.44-8.41,4.53-8.24,9.33l.16,5.06,11.15-1.02-13.91,30.86,25.98-2.37s12.69-29.94,14.28-30.09l45.56-4.16,4.56,6.01c9.86,13.01,25.73,20.01,41.98,18.53l2.77-.25c-20.97-27.76-41.93-55.53-62.89-83.29Zm-24.61,47.22l12.3-23.61,16.91,20.95-29.22,2.66Z"/>
      </g>
      <g>
        <path class="cls-2" d="m191.68,217.89l44.19-99.47h22.74l44.62,99.47h-24.16l-36.52-87.82h9.24l-36.52,87.82h-23.59Zm22.31-21.32l5.83-17.48h51.44l5.97,17.48h-63.24Z"/>
        <path class="cls-2" d="m323.12,130.78c-4.17,0-7.53-1.18-10.09-3.55-2.56-2.37-3.84-5.3-3.84-8.81s1.28-6.44,3.84-8.81c2.56-2.37,5.92-3.55,10.09-3.55s7.41,1.11,10.02,3.34c2.6,2.23,3.91,5.09,3.91,8.6,0,3.69-1.28,6.75-3.84,9.17-2.56,2.42-5.92,3.62-10.09,3.62Zm-11.08,87.11v-76.45h22.17v76.45h-22.17Z"/>
        <path class="cls-2" d="m354.81,217.89v-105.44h22.17v44.48l-1.42,22.59.43,22.74v15.63h-21.17Zm45.05,1.14c-6.54,0-12.25-1.4-17.12-4.19-4.88-2.79-8.6-7.13-11.16-13-2.56-5.87-3.84-13.26-3.84-22.17s1.35-16.39,4.05-22.17c2.7-5.78,6.47-10.09,11.3-12.93,4.83-2.84,10.42-4.26,16.77-4.26,7.29,0,13.81,1.63,19.54,4.9,5.73,3.27,10.28,7.84,13.64,13.71,3.36,5.88,5.04,12.79,5.04,20.75s-1.68,14.87-5.04,20.75c-3.36,5.88-7.91,10.44-13.64,13.71-5.73,3.27-12.25,4.9-19.54,4.9Zm-3.7-18.19c3.7,0,6.99-.83,9.88-2.49,2.89-1.66,5.21-4.1,6.96-7.32,1.75-3.22,2.63-7.01,2.63-11.37s-.88-8.24-2.63-11.37c-1.75-3.13-4.07-5.52-6.96-7.18-2.89-1.66-6.18-2.49-9.88-2.49s-7.01.83-9.95,2.49c-2.94,1.66-5.28,4.05-7.03,7.18-1.75,3.13-2.63,6.92-2.63,11.37s.88,8.15,2.63,11.37c1.75,3.22,4.1,5.66,7.03,7.32,2.94,1.66,6.25,2.49,9.95,2.49Z"/>
        <path class="cls-2" d="m490.94,219.03c-8.72,0-16.34-1.71-22.88-5.12-6.54-3.41-11.61-8.08-15.21-14-3.6-5.92-5.4-12.67-5.4-20.25s1.73-14.35,5.19-20.32c3.46-5.97,8.29-10.63,14.49-14,6.2-3.36,13.19-5.04,20.96-5.04s14.23,1.61,20.25,4.83c6.02,3.22,10.78,7.77,14.28,13.64,3.5,5.88,5.26,12.93,5.26,21.17,0,.85-.05,1.83-.14,2.91-.1,1.09-.19,2.11-.28,3.06h-62.1v-12.93h50.45l-8.67,3.84c.09-3.98-.66-7.44-2.27-10.37-1.61-2.94-3.84-5.23-6.68-6.89-2.84-1.66-6.16-2.49-9.95-2.49s-7.13.83-10.02,2.49c-2.89,1.66-5.14,3.98-6.75,6.96-1.61,2.98-2.42,6.51-2.42,10.59v3.41c0,4.26.95,7.96,2.84,11.08,1.89,3.13,4.5,5.52,7.82,7.18,3.32,1.66,7.29,2.49,11.94,2.49,3.98,0,7.51-.62,10.59-1.85,3.08-1.23,5.9-3.08,8.46-5.54l11.79,12.79c-3.51,3.98-7.91,7.03-13.22,9.17-5.31,2.13-11.42,3.2-18.33,3.2Z"/>
        <path class="cls-2" d="m542.67,217.89v-76.45h21.17v21.17l-3.98-6.39c2.75-5.12,6.68-9.05,11.79-11.79,5.12-2.75,10.94-4.12,17.48-4.12,6.06,0,11.49,1.21,16.27,3.62,4.78,2.42,8.55,6.11,11.3,11.08,2.75,4.97,4.12,11.35,4.12,19.11v43.77h-22.17v-40.36c0-6.16-1.35-10.7-4.05-13.64-2.7-2.94-6.51-4.41-11.44-4.41-3.51,0-6.66.76-9.45,2.27-2.8,1.52-4.97,3.74-6.54,6.68-1.56,2.94-2.34,6.82-2.34,11.65v37.8h-22.17Z"/>
        <path class="cls-3" d="m644.55,217.89v-74.6h9.66v20.18l-1.56-3.55c2.27-5.4,5.94-9.64,11.01-12.72,5.07-3.08,11.06-4.62,17.98-4.62,7.29,0,13.5,1.83,18.62,5.47,5.12,3.65,8.43,9.12,9.95,16.41l-3.98-1.56c2.18-6.06,6.04-10.96,11.58-14.71,5.54-3.74,12.2-5.61,19.96-5.61,6.06,0,11.34,1.16,15.84,3.48,4.5,2.32,8,5.85,10.52,10.59,2.51,4.74,3.77,10.71,3.77,17.9v43.34h-10.09v-42.35c0-7.86-1.87-13.81-5.61-17.83-3.74-4.03-9.02-6.04-15.84-6.04-5.12,0-9.54,1.07-13.29,3.2-3.74,2.13-6.63,5.21-8.67,9.24-2.04,4.03-3.05,8.88-3.05,14.57v39.22h-10.09v-42.35c0-7.86-1.9-13.81-5.68-17.83-3.79-4.03-9.09-6.04-15.92-6.04-5.02,0-9.43,1.07-13.21,3.2-3.79,2.13-6.7,5.21-8.74,9.24-2.04,4.03-3.06,8.88-3.06,14.57v39.22h-10.09Z"/>
        <path class="cls-3" d="m816.35,218.6c-5.59,0-10.45-.92-14.57-2.77-4.12-1.85-7.27-4.41-9.45-7.67-2.18-3.27-3.27-7.03-3.27-11.3,0-3.88.92-7.41,2.77-10.59,1.85-3.17,4.88-5.73,9.09-7.67,4.21-1.94,9.88-2.91,16.98-2.91h25.72v7.53h-25.44c-7.2,0-12.2,1.28-14.99,3.84-2.8,2.56-4.19,5.73-4.19,9.52,0,4.26,1.66,7.67,4.97,10.23,3.32,2.56,7.96,3.84,13.93,3.84s10.59-1.3,14.71-3.91c4.12-2.6,7.13-6.37,9.02-11.3l2.27,6.96c-1.9,4.93-5.19,8.86-9.88,11.79-4.69,2.94-10.59,4.41-17.69,4.41Zm25.72-.71v-16.48l-.43-2.7v-27.57c0-6.35-1.78-11.23-5.33-14.64-3.55-3.41-8.83-5.12-15.84-5.12-4.83,0-9.43.81-13.78,2.42-4.36,1.61-8.05,3.74-11.08,6.39l-4.55-7.53c3.79-3.22,8.34-5.71,13.64-7.46,5.3-1.75,10.89-2.63,16.77-2.63,9.66,0,17.12,2.39,22.38,7.18,5.26,4.78,7.89,12.06,7.89,21.81v46.33h-9.66Z"/>
        <path class="cls-3" d="m879.16,217.89v-74.6h9.66v20.32l-1-3.55c2.08-5.68,5.59-10.02,10.52-13,4.92-2.98,11.04-4.48,18.33-4.48v9.81c-.38,0-.76-.02-1.14-.07-.38-.05-.76-.07-1.14-.07-7.86,0-14.02,2.39-18.47,7.18-4.45,4.78-6.68,11.58-6.68,20.39v38.08h-10.09Z"/>
        <path class="cls-3" d="m926.62,151.67v-8.38h46.18v8.38h-46.18Zm35.24,66.93c-7.01,0-12.41-1.89-16.2-5.68-3.79-3.79-5.68-9.14-5.68-16.06v-70.06h10.09v69.49c0,4.36,1.11,7.72,3.34,10.09,2.22,2.37,5.42,3.55,9.59,3.55,4.45,0,8.15-1.28,11.08-3.84l3.55,7.25c-1.99,1.8-4.38,3.13-7.18,3.98-2.79.85-5.66,1.28-8.6,1.28Z"/>
        <path class="cls-3" d="m1000.72,218.03c-2.33,0-4.49-.42-6.48-1.26-1.99-.84-3.73-2.01-5.22-3.52-1.49-1.51-2.65-3.25-3.47-5.24-.82-1.99-1.23-4.13-1.23-6.43s.42-4.44,1.26-6.43c.84-1.99,2-3.73,3.49-5.24,1.49-1.51,3.24-2.68,5.24-3.52,2-.84,4.17-1.26,6.5-1.26s4.5.41,6.5,1.23c2,.82,3.74,1.98,5.22,3.47,1.47,1.49,2.62,3.22,3.45,5.19.82,1.97,1.24,4.12,1.24,6.45s-.42,4.5-1.26,6.5c-.84,2-2.01,3.76-3.52,5.26-1.51,1.51-3.25,2.68-5.24,3.52-1.99.84-4.15,1.26-6.48,1.26Zm-.05-1.72c2.08,0,4.01-.38,5.8-1.14,1.79-.76,3.35-1.81,4.71-3.14,1.35-1.33,2.4-2.91,3.14-4.73s1.12-3.75,1.12-5.8-.37-4.01-1.09-5.78c-.73-1.77-1.75-3.32-3.08-4.66s-2.87-2.37-4.66-3.1c-1.79-.73-3.74-1.09-5.85-1.09s-4.02.37-5.82,1.12c-1.8.75-3.36,1.79-4.68,3.14-1.32,1.35-2.35,2.91-3.1,4.68-.75,1.77-1.12,3.7-1.12,5.78s.37,3.97,1.12,5.75c.75,1.79,1.78,3.35,3.1,4.71,1.32,1.35,2.87,2.4,4.66,3.14,1.79.75,3.7,1.12,5.75,1.12Zm-6.34-5.31v-18.82h7.31c2.3,0,4.11.57,5.43,1.7,1.32,1.13,1.98,2.65,1.98,4.54,0,1.99-.66,3.54-1.98,4.66-1.32,1.12-3.14,1.68-5.47,1.68h-4.84v6.24h-2.42Zm2.38-8.29h4.75c1.65,0,2.93-.37,3.84-1.12.92-.75,1.37-1.8,1.37-3.17s-.46-2.37-1.37-3.1c-.92-.73-2.2-1.09-3.84-1.09h-4.75v8.48Zm10.02,8.29l-4.71-7.27h2.52l4.71,7.27h-2.52Z"/>
      </g>
    </g>
  </g>
</svg>